<svg width="124" height="124" viewBox="0 0 124 124" fill="none" xmlns="http://www.w3.org/2000/svg">
<circle cx="62" cy="61.9922" r="61.5" fill="#FAFBFC" stroke="#0B8297"/>
<path d="M62.7255 37.2628H69.5V39.7567H62.7255V46.9922H60.2745V39.7567H53.5V37.2628H60.2745V29.9922H62.7255V37.2628Z" fill="#0B8297"/>
<path opacity="0.85" d="M35.106 66.9922V57.3602C35.106 56.6669 35.3033 56.1122 35.698 55.6962C36.1033 55.2695 36.6793 55.0562 37.426 55.0562C37.7353 55.0562 38.0393 55.1042 38.338 55.2002C38.6367 55.2855 38.882 55.4189 39.074 55.6002L38.754 56.2082C38.594 56.0482 38.402 55.9309 38.178 55.8562C37.954 55.7815 37.714 55.7442 37.458 55.7442C36.946 55.7442 36.5567 55.8882 36.29 56.1762C36.0233 56.4535 35.89 56.8695 35.89 57.4242V58.8322L35.906 59.2162V66.9922H35.106ZM33.57 59.3282V58.6402H38.562V59.3282H33.57ZM43.3194 67.0562C42.5194 67.0562 41.8047 66.8749 41.1754 66.5122C40.5567 66.1495 40.0607 65.6482 39.6874 65.0082C39.3247 64.3682 39.1434 63.6375 39.1434 62.8162C39.1434 61.9842 39.3247 61.2535 39.6874 60.6242C40.0607 59.9842 40.5567 59.4829 41.1754 59.1202C41.8047 58.7575 42.5194 58.5762 43.3194 58.5762C44.1194 58.5762 44.834 58.7575 45.4634 59.1202C46.0927 59.4829 46.5887 59.9842 46.9514 60.6242C47.314 61.2535 47.4954 61.9842 47.4954 62.8162C47.4954 63.6375 47.314 64.3682 46.9514 65.0082C46.5887 65.6482 46.0927 66.1495 45.4634 66.5122C44.834 66.8749 44.1194 67.0562 43.3194 67.0562ZM43.3194 66.3362C43.9594 66.3362 44.5354 66.1922 45.0474 65.9042C45.5594 65.6055 45.9594 65.1895 46.2474 64.6562C46.5354 64.1229 46.6794 63.5095 46.6794 62.8162C46.6794 62.1122 46.5354 61.4989 46.2474 60.9762C45.9594 60.4429 45.5594 60.0322 45.0474 59.7442C44.5354 59.4455 43.9594 59.2962 43.3194 59.2962C42.6794 59.2962 42.1034 59.4455 41.5914 59.7442C41.09 60.0322 40.69 60.4429 40.3914 60.9762C40.1034 61.4989 39.9594 62.1122 39.9594 62.8162C39.9594 63.5095 40.1034 64.1229 40.3914 64.6562C40.69 65.1895 41.09 65.6055 41.5914 65.9042C42.1034 66.1922 42.6794 66.3362 43.3194 66.3362ZM49.9773 66.9922V58.6402H50.7453V60.9282L50.6653 60.6722C50.8999 60.0002 51.2946 59.4829 51.8493 59.1202C52.4039 58.7575 53.0973 58.5762 53.9293 58.5762V59.3602C53.8973 59.3602 53.8653 59.3602 53.8333 59.3602C53.8013 59.3495 53.7693 59.3442 53.7373 59.3442C52.8093 59.3442 52.0839 59.6375 51.5613 60.2242C51.0386 60.8002 50.7773 61.6055 50.7773 62.6402V66.9922H49.9773ZM59.4474 67.0562C58.6047 67.0562 57.858 66.8749 57.2074 66.5122C56.5674 66.1495 56.0607 65.6482 55.6874 65.0082C55.3247 64.3682 55.1434 63.6375 55.1434 62.8162C55.1434 61.9842 55.314 61.2535 55.6554 60.6242C56.0074 59.9842 56.4874 59.4829 57.0954 59.1202C57.7034 58.7575 58.386 58.5762 59.1434 58.5762C59.9007 58.5762 60.578 58.7522 61.1754 59.1042C61.7834 59.4562 62.258 59.9522 62.5994 60.5922C62.9514 61.2215 63.1274 61.9522 63.1274 62.7842C63.1274 62.8162 63.122 62.8535 63.1114 62.8962C63.1114 62.9282 63.1114 62.9655 63.1114 63.0082H55.7354V62.3842H62.6794L62.3594 62.6882C62.37 62.0375 62.2314 61.4562 61.9434 60.9442C61.666 60.4215 61.2874 60.0162 60.8074 59.7282C60.3274 59.4295 59.7727 59.2802 59.1434 59.2802C58.5247 59.2802 57.97 59.4295 57.4794 59.7282C56.9994 60.0162 56.6207 60.4215 56.3434 60.9442C56.066 61.4562 55.9274 62.0429 55.9274 62.7042V62.8482C55.9274 63.5309 56.0767 64.1389 56.3754 64.6722C56.6847 65.1949 57.106 65.6055 57.6394 65.9042C58.1727 66.1922 58.7807 66.3362 59.4634 66.3362C59.9967 66.3362 60.4927 66.2402 60.9514 66.0482C61.4207 65.8562 61.8154 65.5629 62.1354 65.1682L62.5994 65.6962C62.2367 66.1442 61.778 66.4855 61.2234 66.7202C60.6794 66.9442 60.0874 67.0562 59.4474 67.0562ZM65.6023 66.9922V58.6402H66.4023V66.9922H65.6023ZM66.0023 56.6082C65.8209 56.6082 65.6663 56.5442 65.5383 56.4162C65.4103 56.2882 65.3463 56.1389 65.3463 55.9682C65.3463 55.7869 65.4103 55.6322 65.5383 55.5042C65.6663 55.3762 65.8209 55.3122 66.0023 55.3122C66.1943 55.3122 66.3489 55.3762 66.4663 55.5042C66.5943 55.6215 66.6583 55.7709 66.6583 55.9522C66.6583 56.1335 66.5943 56.2882 66.4663 56.4162C66.3489 56.5442 66.1943 56.6082 66.0023 56.6082ZM73.2461 70.1602C72.4888 70.1602 71.7688 70.0429 71.0861 69.8082C70.4035 69.5735 69.8488 69.2482 69.4221 68.8322L69.8541 68.2242C70.2701 68.6082 70.7661 68.9069 71.3421 69.1202C71.9288 69.3335 72.5581 69.4402 73.2301 69.4402C74.3501 69.4402 75.1715 69.1789 75.6941 68.6562C76.2275 68.1335 76.4941 67.3122 76.4941 66.1922V63.8722L76.6541 62.6242L76.5261 61.3762V58.6402H77.2941V66.0962C77.2941 67.4935 76.9528 68.5175 76.2701 69.1682C75.5981 69.8295 74.5901 70.1602 73.2461 70.1602ZM73.0221 66.6882C72.2328 66.6882 71.5235 66.5175 70.8941 66.1762C70.2755 65.8242 69.7795 65.3442 69.4061 64.7362C69.0435 64.1175 68.8621 63.4135 68.8621 62.6242C68.8621 61.8242 69.0435 61.1202 69.4061 60.5122C69.7795 59.9042 70.2755 59.4295 70.8941 59.0882C71.5235 58.7469 72.2328 58.5762 73.0221 58.5762C73.7795 58.5762 74.4568 58.7415 75.0541 59.0722C75.6621 59.3922 76.1421 59.8562 76.4941 60.4642C76.8461 61.0615 77.0221 61.7815 77.0221 62.6242C77.0221 63.4562 76.8461 64.1762 76.4941 64.7842C76.1421 65.3922 75.6621 65.8615 75.0541 66.1922C74.4568 66.5229 73.7795 66.6882 73.0221 66.6882ZM73.0861 65.9682C73.7581 65.9682 74.3501 65.8295 74.8621 65.5522C75.3741 65.2642 75.7741 64.8695 76.0621 64.3682C76.3608 63.8562 76.5101 63.2749 76.5101 62.6242C76.5101 61.9629 76.3608 61.3815 76.0621 60.8802C75.7741 60.3789 75.3741 59.9895 74.8621 59.7122C74.3501 59.4349 73.7581 59.2962 73.0861 59.2962C72.4355 59.2962 71.8488 59.4349 71.3261 59.7122C70.8141 59.9895 70.4088 60.3789 70.1101 60.8802C69.8221 61.3815 69.6781 61.9629 69.6781 62.6242C69.6781 63.2749 69.8221 63.8562 70.1101 64.3682C70.4088 64.8695 70.8141 65.2642 71.3261 65.5522C71.8488 65.8295 72.4355 65.9682 73.0861 65.9682ZM84.7604 58.5762C85.443 58.5762 86.035 58.7095 86.5364 58.9762C87.0484 59.2322 87.443 59.6269 87.7204 60.1602C88.0084 60.6829 88.1524 61.3335 88.1524 62.1122V66.9922H87.3524V62.1762C87.3524 61.2375 87.1124 60.5229 86.6324 60.0322C86.163 59.5415 85.5017 59.2962 84.6484 59.2962C83.9977 59.2962 83.4324 59.4295 82.9524 59.6962C82.4724 59.9629 82.1044 60.3362 81.8484 60.8162C81.603 61.2962 81.4804 61.8722 81.4804 62.5442V66.9922H80.6804V58.6402H81.4484V60.9602L81.3364 60.7042C81.5924 60.0429 82.0137 59.5255 82.6004 59.1522C83.187 58.7682 83.907 58.5762 84.7604 58.5762ZM33.7864 89.0562C33.0504 89.0562 32.3838 88.8855 31.7864 88.5442C31.1998 88.2029 30.7304 87.7175 30.3784 87.0882C30.0371 86.4482 29.8664 85.6909 29.8664 84.8162C29.8664 83.9415 30.0371 83.1895 30.3784 82.5602C30.7304 81.9202 31.1998 81.4295 31.7864 81.0882C32.3838 80.7469 33.0504 80.5762 33.7864 80.5762C34.5758 80.5762 35.2798 80.7575 35.8984 81.1202C36.5278 81.4722 37.0184 81.9682 37.3704 82.6082C37.7331 83.2482 37.9144 83.9842 37.9144 84.8162C37.9144 85.6482 37.7331 86.3842 37.3704 87.0242C37.0184 87.6642 36.5278 88.1655 35.8984 88.5282C35.2798 88.8802 34.5758 89.0562 33.7864 89.0562ZM29.5944 92.0962V80.6402H30.3624V83.3762L30.2344 84.8322L30.3944 86.2882V92.0962H29.5944ZM33.7384 88.3362C34.3784 88.3362 34.9544 88.1922 35.4664 87.9042C35.9784 87.6055 36.3784 87.1895 36.6664 86.6562C36.9651 86.1229 37.1144 85.5095 37.1144 84.8162C37.1144 84.1122 36.9651 83.4989 36.6664 82.9762C36.3784 82.4429 35.9784 82.0322 35.4664 81.7442C34.9544 81.4455 34.3784 81.2962 33.7384 81.2962C33.0984 81.2962 32.5224 81.4455 32.0104 81.7442C31.5091 82.0322 31.1091 82.4429 30.8104 82.9762C30.5224 83.4989 30.3784 84.1122 30.3784 84.8162C30.3784 85.5095 30.5224 86.1229 30.8104 86.6562C31.1091 87.1895 31.5091 87.6055 32.0104 87.9042C32.5224 88.1922 33.0984 88.3362 33.7384 88.3362ZM45.6241 88.9922V87.0882L45.5921 86.8002V83.6642C45.5921 82.8855 45.3787 82.2935 44.9521 81.8882C44.5361 81.4829 43.9227 81.2802 43.1121 81.2802C42.5361 81.2802 41.9974 81.3815 41.4961 81.5842C41.0054 81.7762 40.5841 82.0269 40.2321 82.3362L39.8321 81.7602C40.2481 81.3869 40.7494 81.0989 41.3361 80.8962C41.9227 80.6829 42.5361 80.5762 43.1761 80.5762C44.2107 80.5762 45.0054 80.8375 45.5601 81.3602C46.1147 81.8829 46.3921 82.6615 46.3921 83.6962V88.9922H45.6241ZM42.6161 89.0562C41.9974 89.0562 41.4587 88.9602 41.0001 88.7682C40.5521 88.5655 40.2054 88.2829 39.9601 87.9202C39.7254 87.5575 39.6081 87.1415 39.6081 86.6722C39.6081 86.2455 39.7041 85.8615 39.8961 85.5202C40.0987 85.1682 40.4294 84.8855 40.8881 84.6722C41.3467 84.4482 41.9601 84.3362 42.7281 84.3362H45.8001V84.9602H42.7441C41.8801 84.9602 41.2721 85.1202 40.9201 85.4402C40.5787 85.7602 40.4081 86.1602 40.4081 86.6402C40.4081 87.1735 40.6107 87.6002 41.0161 87.9202C41.4214 88.2402 41.9921 88.4002 42.7281 88.4002C43.4321 88.4002 44.0241 88.2402 44.5041 87.9202C44.9947 87.6002 45.3574 87.1362 45.5921 86.5282L45.8161 87.0722C45.5921 87.6802 45.2081 88.1655 44.6641 88.5282C44.1307 88.8802 43.4481 89.0562 42.6161 89.0562ZM49.6882 88.9922V80.6402H50.4562V82.9282L50.3762 82.6722C50.6109 82.0002 51.0055 81.4829 51.5602 81.1202C52.1149 80.7575 52.8082 80.5762 53.6402 80.5762V81.3602C53.6082 81.3602 53.5762 81.3602 53.5442 81.3602C53.5122 81.3495 53.4802 81.3442 53.4482 81.3442C52.5202 81.3442 51.7949 81.6375 51.2722 82.2242C50.7495 82.8002 50.4882 83.6055 50.4882 84.6402V88.9922H49.6882ZM58.6514 89.0562C57.9154 89.0562 57.3501 88.8535 56.9554 88.4482C56.5714 88.0429 56.3794 87.4882 56.3794 86.7842V78.8162H57.1794V86.7042C57.1794 87.2375 57.3128 87.6482 57.5794 87.9362C57.8461 88.2242 58.2301 88.3682 58.7314 88.3682C59.2541 88.3682 59.6861 88.2135 60.0274 87.9042L60.3634 88.4642C60.1501 88.6669 59.8888 88.8162 59.5794 88.9122C59.2808 89.0082 58.9714 89.0562 58.6514 89.0562ZM54.8434 81.3282V80.6402H59.8354V81.3282H54.8434ZM66.6744 80.5762C67.3571 80.5762 67.9491 80.7095 68.4504 80.9762C68.9624 81.2322 69.3571 81.6269 69.6344 82.1602C69.9224 82.6829 70.0664 83.3335 70.0664 84.1122V88.9922H69.2664V84.1762C69.2664 83.2375 69.0264 82.5229 68.5464 82.0322C68.0771 81.5415 67.4158 81.2962 66.5624 81.2962C65.9118 81.2962 65.3464 81.4295 64.8664 81.6962C64.3864 81.9629 64.0184 82.3362 63.7624 82.8162C63.5171 83.2962 63.3944 83.8722 63.3944 84.5442V88.9922H62.5944V80.6402H63.3624V82.9602L63.2504 82.7042C63.5064 82.0429 63.9278 81.5255 64.5144 81.1522C65.1011 80.7682 65.8211 80.5762 66.6744 80.5762ZM76.7521 89.0562C75.9094 89.0562 75.1627 88.8749 74.5121 88.5122C73.8721 88.1495 73.3654 87.6482 72.9921 87.0082C72.6294 86.3682 72.4481 85.6375 72.4481 84.8162C72.4481 83.9842 72.6187 83.2535 72.9601 82.6242C73.3121 81.9842 73.7921 81.4829 74.4001 81.1202C75.0081 80.7575 75.6907 80.5762 76.4481 80.5762C77.2054 80.5762 77.8827 80.7522 78.4801 81.1042C79.0881 81.4562 79.5627 81.9522 79.9041 82.5922C80.2561 83.2215 80.4321 83.9522 80.4321 84.7842C80.4321 84.8162 80.4267 84.8535 80.4161 84.8962C80.4161 84.9282 80.4161 84.9655 80.4161 85.0082H73.0401V84.3842H79.9841L79.6641 84.6882C79.6747 84.0375 79.5361 83.4562 79.2481 82.9442C78.9707 82.4215 78.5921 82.0162 78.1121 81.7282C77.6321 81.4295 77.0774 81.2802 76.4481 81.2802C75.8294 81.2802 75.2747 81.4295 74.7841 81.7282C74.3041 82.0162 73.9254 82.4215 73.6481 82.9442C73.3707 83.4562 73.2321 84.0429 73.2321 84.7042V84.8482C73.2321 85.5309 73.3814 86.1389 73.6801 86.6722C73.9894 87.1949 74.4107 87.6055 74.9441 87.9042C75.4774 88.1922 76.0854 88.3362 76.7681 88.3362C77.3014 88.3362 77.7974 88.2402 78.2561 88.0482C78.7254 87.8562 79.1201 87.5629 79.4401 87.1682L79.9041 87.6962C79.5414 88.1442 79.0827 88.4855 78.5281 88.7202C77.9841 88.9442 77.3921 89.0562 76.7521 89.0562ZM82.9069 88.9922V80.6402H83.6749V82.9282L83.5949 82.6722C83.8296 82.0002 84.2243 81.4829 84.7789 81.1202C85.3336 80.7575 86.0269 80.5762 86.8589 80.5762V81.3602C86.8269 81.3602 86.7949 81.3602 86.7629 81.3602C86.7309 81.3495 86.6989 81.3442 86.6669 81.3442C85.7389 81.3442 85.0136 81.6375 84.4909 82.2242C83.9683 82.8002 83.7069 83.6055 83.7069 84.6402V88.9922H82.9069ZM91.2689 89.0562C90.5756 89.0562 89.9249 88.9549 89.3169 88.7522C88.7196 88.5495 88.2556 88.2935 87.9249 87.9842L88.2929 87.3442C88.6129 87.6215 89.0396 87.8615 89.5729 88.0642C90.1063 88.2562 90.6823 88.3522 91.3009 88.3522C92.1756 88.3522 92.8049 88.2082 93.1889 87.9202C93.5729 87.6322 93.7649 87.2535 93.7649 86.7842C93.7649 86.4429 93.6636 86.1762 93.4609 85.9842C93.2689 85.7815 93.0076 85.6269 92.6769 85.5202C92.3463 85.4135 91.9836 85.3282 91.5889 85.2642C91.1943 85.1895 90.7996 85.1095 90.4049 85.0242C90.0103 84.9389 89.6476 84.8162 89.3169 84.6562C88.9863 84.4962 88.7196 84.2775 88.5169 84.0002C88.3249 83.7122 88.2289 83.3335 88.2289 82.8642C88.2289 82.4375 88.3463 82.0535 88.5809 81.7122C88.8156 81.3709 89.1676 81.0989 89.6369 80.8962C90.1063 80.6829 90.6929 80.5762 91.3969 80.5762C91.9196 80.5762 92.4423 80.6509 92.9649 80.8002C93.4983 80.9495 93.9303 81.1469 94.2609 81.3922L93.8929 82.0322C93.5409 81.7655 93.1463 81.5735 92.7089 81.4562C92.2716 81.3389 91.8289 81.2802 91.3809 81.2802C90.5703 81.2802 89.9729 81.4295 89.5889 81.7282C89.2156 82.0269 89.0289 82.4002 89.0289 82.8482C89.0289 83.2002 89.1249 83.4829 89.3169 83.6962C89.5196 83.8989 89.7863 84.0589 90.1169 84.1762C90.4476 84.2829 90.8103 84.3735 91.2049 84.4482C91.5996 84.5122 91.9943 84.5869 92.3889 84.6722C92.7836 84.7575 93.1463 84.8802 93.4769 85.0402C93.8076 85.1895 94.0689 85.4029 94.2609 85.6802C94.4636 85.9469 94.5649 86.3095 94.5649 86.7682C94.5649 87.2269 94.4369 87.6269 94.1809 87.9682C93.9356 88.3095 93.5676 88.5762 93.0769 88.7682C92.5863 88.9602 91.9836 89.0562 91.2689 89.0562Z" fill="#474747"/>
</svg>
