<svg width="1200" height="122" viewBox="0 0 1200 122" fill="none" xmlns="http://www.w3.org/2000/svg">
<rect width="285" height="122" rx="20" fill="#0B8297"/>
<rect x="305" width="285" height="122" rx="20" fill="#0B8297"/>
<rect x="610" width="285" height="122" rx="20" fill="#0B8297"/>
<rect x="915" width="285" height="122" rx="20" fill="#0B8297"/>
<path fill-rule="evenodd" clip-rule="evenodd" d="M506.376 73.3277L499.988 66.1648L493.66 73.3277H480.348L493.363 58.7041L480.348 44.0786H494.078L500.525 51.182L506.733 44.0786H519.987L507.032 58.6437L520.163 73.3277H506.376ZM454.773 73.3277V27.2524H480.348V37.5229H465.607V44.0786H480.348V53.9596H465.607V63.0289H480.348V73.3277H454.773Z" fill="#BEDFFF"/>
<path fill-rule="evenodd" clip-rule="evenodd" d="M443.986 27.2528V46.1089H443.867C441.48 43.3633 438.494 42.4082 435.033 42.4082C427.94 42.4082 422.597 47.2318 420.722 53.6055C418.581 46.5822 413.066 42.2781 404.888 42.2781C398.246 42.2781 393.002 45.2594 390.264 50.116V44.0789H376.534V37.5233H391.517V27.2528H364.295V73.328H376.534V53.96H388.733C388.357 55.449 388.169 56.9792 388.175 58.5149C388.175 68.1263 395.517 74.8715 404.888 74.8715C412.768 74.8715 417.961 71.1698 420.708 64.4256H410.218C408.8 66.4537 407.724 67.0543 404.887 67.0543C401.599 67.0543 398.763 64.1862 398.763 60.7843H420.118C421.044 68.4167 426.991 75.0016 435.15 75.0016C438.672 75.0016 441.896 73.2696 443.865 70.3458H443.984V73.3299H454.771V27.2528H443.986ZM399.104 54.0977C399.785 51.172 402.053 49.2589 404.888 49.2589C408.007 49.2589 410.162 51.1126 410.729 54.0977H399.104ZM437.438 66.3142C433.462 66.3142 430.991 62.6069 430.991 58.7393C430.991 54.6021 433.14 50.627 437.438 50.627C441.896 50.627 443.67 54.603 443.67 58.7393C443.669 62.6606 441.789 66.3142 437.438 66.3142ZM476.218 95.2804V94.479C477.269 94.429 477.669 93.9774 477.669 93.226V86.4205C477.669 84.7167 477.367 84.168 476.117 84.1199V83.3185L479.568 83.31V86.0707H479.62C479.944 84.7695 480.846 83.0177 482.347 83.0177C483.406 83.0177 484.237 83.8634 484.237 85.2042C484.237 86.1489 483.694 86.6524 483.043 86.6524C482.493 86.6524 481.872 86.2894 481.872 85.3456C481.872 84.7441 482.384 84.2463 482.64 84.1407C482.597 83.9059 482.344 83.8163 482.234 83.8163C480.702 83.8163 479.819 87.4953 479.819 89.6742V93.226C479.819 93.9774 480.224 94.429 481.925 94.479V95.2804H476.218ZM497.867 78.0084C497.119 78.0084 496.592 78.6278 496.592 79.3038C496.592 79.9695 497.119 80.6002 497.867 80.6002C498.616 80.6002 499.146 79.9912 499.146 79.3038C499.146 78.6071 498.616 78.0084 497.867 78.0084ZM500.749 95.3445V94.5431C499.547 94.4941 499.147 94.0415 499.147 93.2901V83.3741H496.09V84.1727C496.697 84.2236 496.995 84.399 496.995 85.4738V93.2901C496.995 94.0415 496.593 94.4941 495.919 94.5431V95.3445H500.749ZM510.037 91.1451C509.814 93.4966 508.713 95.5991 505.958 95.5991C503.431 95.5991 501.082 92.9959 501.082 89.3178C501.082 86.1913 503.257 83.0366 506.262 83.0366C508.389 83.0366 509.739 84.4641 509.739 86.1697C509.739 87.0795 509.279 87.8074 508.462 87.8074C507.763 87.8074 507.286 87.1003 507.286 86.4789C507.286 85.6322 507.661 85.1382 508.312 85.1382C508.487 85.1382 508.588 85.2136 508.685 85.2381L508.737 85.1882C508.362 84.2868 507.564 83.8352 506.637 83.8352C504.783 83.8352 503.532 85.6879 503.532 89.2415C503.532 93.4456 504.832 94.6468 506.285 94.6468C508.311 94.6468 508.963 92.7951 509.239 91.0423L510.037 91.1451ZM468.505 88.2939C468.505 85.0948 469.458 83.8465 470.882 83.8465C472.208 83.8465 472.958 85.0948 472.958 88.2939H468.505ZM475.413 89.2443C475.413 85.6445 473.658 83.0441 470.882 83.0441C468.061 83.0441 466.056 85.6445 466.056 89.3216C466.056 92.45 468.104 95.601 471.21 95.601C473.583 95.601 474.881 94.1641 475.383 91.7608L474.582 91.6146C474.134 93.3759 473.304 94.6515 471.456 94.6515C469.78 94.6515 468.505 92.7479 468.505 89.2452L475.413 89.2443ZM513.611 88.2939C513.611 85.0948 514.564 83.8465 515.988 83.8465C517.314 83.8465 518.064 85.0948 518.064 88.2939H513.611ZM520.519 89.2443C520.519 85.6445 518.764 83.0441 515.988 83.0441C513.165 83.0441 511.164 85.6445 511.164 89.3216C511.164 92.45 513.21 95.601 516.316 95.601C518.687 95.601 519.987 94.1641 520.489 91.7608L519.688 91.6146C519.24 93.3759 518.41 94.6515 516.562 94.6515C514.886 94.6515 513.611 92.7479 513.611 89.2452L520.519 89.2443ZM522.095 95.2804V91.0961H522.9C523.145 92.6744 524.158 94.7751 525.999 94.7751C527.246 94.7751 528.198 94.0255 528.198 92.6009C528.198 89.3744 522.197 90.8 522.197 86.3969C522.197 84.8459 523.326 83.0196 525.526 83.0196C526.898 83.0196 527.449 83.7701 527.9 83.7701C528.147 83.7701 528.198 83.4957 528.302 83.3175H529.1V86.9456H528.302C528.026 85.5436 527.181 83.8229 525.624 83.8229C524.523 83.8229 523.796 84.547 523.796 85.62C523.796 88.6248 530 87.2719 530 91.873C530 93.4287 528.775 95.5774 526.126 95.5774C524.45 95.5774 523.949 94.677 523.345 94.677C523.075 94.677 522.949 95.0532 522.901 95.2814L522.095 95.2804ZM495.324 83.3355V84.135C494.672 84.1869 494.074 84.3358 493.72 85.3862L490.275 95.4303H489.424L485.925 85.1844C485.626 84.3358 485.23 84.2387 484.633 84.135V83.3355H489.525V84.135C488.525 84.1869 488.078 84.2114 488.078 84.8374C488.078 85.4861 488.352 85.8095 490.476 92.0823H490.524C492.547 85.8623 492.823 85.3371 492.823 84.861C492.823 84.1869 492.273 84.1869 491.322 84.135V83.3355H495.324ZM454.774 95.2983V89.1283H455.571C455.975 91.4789 457.395 94.7487 459.901 94.7487C461.779 94.7487 462.779 93.1222 462.779 91.543C462.779 86.9909 454.775 88.0393 454.775 82.4086C454.775 79.8809 456.627 77.6774 459.226 77.6774C461.156 77.6774 461.909 79.0323 462.333 79.0323C462.734 79.0323 462.905 78.3553 463.082 78.0791H463.884V84.1067H463.082C462.78 82.0532 461.653 78.6306 459.226 78.6306C457.85 78.6306 456.774 79.6574 456.774 81.3347C456.774 85.7378 464.781 84.3358 464.781 90.519C464.781 93.1458 462.63 95.7009 459.955 95.7009C457.928 95.7009 457.025 94.298 456.473 94.298C456.049 94.298 455.721 94.975 455.572 95.2993H454.774V95.2983Z" fill="white"/>
<path fill-rule="evenodd" clip-rule="evenodd" d="M523.115 70.3599C523.116 69.9706 523.193 69.5853 523.343 69.2259C523.492 68.8665 523.711 68.5402 523.987 68.2655C524.263 67.9909 524.59 67.7734 524.95 67.6254C525.31 67.4774 525.696 67.4019 526.085 67.4031C526.474 67.4028 526.858 67.4792 527.217 67.6277C527.576 67.7762 527.902 67.994 528.176 68.2686C528.451 68.5432 528.668 68.8693 528.817 69.2281C528.965 69.587 529.041 69.9716 529.041 70.3599C529.043 70.7493 528.968 71.1352 528.821 71.4955C528.673 71.8558 528.456 72.1834 528.181 72.4593C527.906 72.7353 527.58 72.9542 527.22 73.1034C526.86 73.2526 526.475 73.3293 526.085 73.3289C525.695 73.3301 525.308 73.2542 524.947 73.1055C524.587 72.9567 524.259 72.7381 523.983 72.4621C523.707 72.1862 523.488 71.8584 523.339 71.4976C523.19 71.1368 523.114 70.7502 523.115 70.3599ZM528.521 70.3599C528.521 69.714 528.264 69.0946 527.808 68.6378C527.351 68.1809 526.732 67.924 526.086 67.9235C525.438 67.9223 524.816 68.1781 524.357 68.6348C523.897 69.0916 523.637 69.7119 523.635 70.3599C523.635 71.7157 524.73 72.8113 526.086 72.8113C526.407 72.8105 526.725 72.7465 527.021 72.6228C527.317 72.4992 527.586 72.3183 527.812 72.0906C528.038 71.8629 528.217 71.5928 528.339 71.2958C528.46 70.9988 528.522 70.6808 528.521 70.3599ZM525.454 70.556V72.0636H524.911V68.5798H526.038C526.677 68.5798 527.338 68.7561 527.338 69.5415C527.338 69.9422 527.095 70.259 526.627 70.3542V70.3712C527.112 70.4655 527.165 70.6776 527.22 71.0557C527.268 71.3848 527.307 71.7477 527.427 72.0645H526.733C526.692 71.8694 526.639 71.6469 526.613 71.4404C526.575 71.1415 526.575 70.8643 526.416 70.6993C526.283 70.5579 526.101 70.573 525.912 70.5579H525.454V70.556ZM526.029 70.0157C526.543 69.9969 526.66 69.7847 526.66 69.517C526.66 69.2596 526.543 69.1238 526.11 69.1238H525.454V70.0157H526.029Z" fill="#BEDFFF"/>
<path fill-rule="evenodd" clip-rule="evenodd" d="M778.16 91.958C776.353 92.9562 772.618 93.9195 770.482 93.9195C766.631 93.9076 765.374 91.0661 765.738 88.2135C766.161 84.9379 768.18 81.2624 775.026 81.4386C777.397 81.4386 779.065 82.0496 780.227 83.5644C780.227 83.5644 781.636 81.979 782.339 81.2513C781.025 80.6292 778.219 79.5374 775.871 79.4898C767.688 79.3485 761.112 81.3688 759.28 87.8262C758.025 92.2762 760.36 95.916 768.72 95.9985C771.457 96.0334 774.462 95.4819 776.458 94.859C776.787 94.2361 778.16 91.958 778.16 91.958ZM745.062 95.2931H751.367L756.004 82.3773L761.664 82.4598L762.439 79.9833H745.403L744.029 82.3781H750.077L745.062 95.2931ZM701.854 95.3748L705.893 85.3013L716.366 95.3748H719.618L725.324 80.2285H722.108L718.598 89.8798L707.784 80.3697L704.602 80.2285L698.508 95.3748H701.854ZM701.596 80.2293H687.742L682 95.0344H696.5L697.099 92.9681H688.434L690.231 88.2476H698.509L699.542 86.0639H691.44L692.555 82.459H700.915L701.596 80.2293ZM815.345 84.3269C814.547 86.4281 813.256 87.0272 809.441 87.0272L808.689 86.9796C809.475 84.9482 810.062 83.5517 810.909 81.5322C814.724 81.5322 816.355 81.6965 815.345 84.3269ZM812.563 95.6446H819.584L814.982 88.0008C818.28 87.485 820.699 86.1456 821.205 84.4674C821.71 83.1518 821.475 81.391 820.325 80.7451C819.162 80.0055 818.175 80.1468 814.653 80.1468L805.906 80.0992L799.953 95.6327H806.095L808.138 88.6935H809.3L812.563 95.6446ZM730.949 88.9411L734.848 85.0427L735.364 88.9411H730.949ZM720.911 95.3748H724.468L728.671 91.1716H735.705L736.397 95.2923H742.573L739.051 79.9817H736.221L720.911 95.3748ZM787.038 88.9411L790.935 85.0427L791.451 88.9411H787.038ZM776.998 95.3748H780.556L784.76 91.1716H791.792L792.485 95.2923H798.661L795.139 79.9817H792.309L776.998 95.3748Z" fill="white"/>
<path fill-rule="evenodd" clip-rule="evenodd" d="M730.398 48.8909C730.445 52.5425 733.838 57.0861 734.907 60.9488C737.619 65.2345 743.948 67.8293 750.898 67.7713C760.526 67.6888 772.01 58.977 772.01 49.3844C772.01 38.7817 763.52 30.9626 753.61 29.5882C745.321 28.4376 737.677 32.5821 734.167 37.0558C731.608 40.3203 730.316 43.3141 730.398 48.8909Z" fill="#E0E245"/>
<path fill-rule="evenodd" clip-rule="evenodd" d="M759.035 26.7237C758.683 26.9705 758.988 28.6963 759.551 29.2129C759.822 29.4597 760.138 29.8231 761.266 30.1405C762.193 30.3984 763.801 30.5745 764.12 30.6801C765.034 31.0094 765.88 32.4773 767.253 33.5454C767.582 33.8033 770.237 36.2456 771.492 37.2669C772.174 37.8303 773.311 39.1808 773.395 39.5918C773.477 40.0029 773.946 40.1552 774.544 43.4776C775.12 46.6127 774.368 50.4754 774.133 51.8379C773.887 53.2932 770.587 60.2442 770.587 60.2442C770.587 60.2442 769.777 62.3692 770.4 62.8858C773.146 65.1401 777.338 61.1131 777.338 61.1131C777.338 61.1131 779.252 59.0341 780.649 56.0522C781.718 54.1033 782.88 50.2874 782.975 48.479C783.115 45.7787 782.504 43.2657 782.234 41.6811C781.307 37.9596 780.004 36.8209 778.501 34.6721C776.212 31.3966 775.789 30.8332 774.955 29.9992C771.303 26.3357 769.389 26.4769 768.392 25.9833C768.169 25.8659 767.088 25.9714 766.678 25.7604C765.364 25.0914 764.741 25.1145 763.473 25.0089C762.275 24.9034 760.373 25.7493 759.035 26.7237Z" fill="white"/>
<g clip-path="url(#clip0_17_2487)">
<path fill-rule="evenodd" clip-rule="evenodd" d="M23.8945 -58.3987H264.108V181.815H23.8945V-58.3987Z" fill="white"/>
<path fill-rule="evenodd" clip-rule="evenodd" d="M65.7363 91.1284C50.2983 91.1284 37.7266 77.9361 37.7266 61.6794C37.7266 45.4787 50.2983 32.2876 65.7363 32.2876H222.265C237.76 32.2876 250.276 45.4787 250.276 61.6794C250.276 77.9361 237.76 91.1284 222.265 91.1284H65.7363Z" fill="#2D4F9E" stroke="#CC2229" stroke-width="4.01777" stroke-miterlimit="2.613"/>
<path fill-rule="evenodd" clip-rule="evenodd" d="M87.1304 48.5456V79.0365H83.4366L68.9358 52.7117H68.881V75.8549H72.7953V79.0365H61.2168V75.8549H64.8557V48.5456H61.3265V45.3628H69.5975L82.9955 70.0676H83.1051V48.5456H79.4114V45.3628H90.7145V48.5456H87.1304ZM109.405 78.9779V75.6219H109.295C108.431 76.8182 107.296 77.793 105.983 78.4668C104.67 79.1406 103.217 79.4943 101.741 79.4988C97.3854 79.4988 95.2345 77.242 95.2345 72.4403V60.5802H92.2573V57.456H99.0379V72.6709C99.0379 75.0997 100.748 76.1416 102.456 76.1416C105.379 76.1416 107.364 74.5228 109.404 72.4977V60.579H105.875V57.4547H113.207V75.8537H116.516V78.9767L109.405 78.9779ZM118.944 79.0365V75.911H122.581V48.4883H119.053V45.3628H126.387V75.911H129.805V79.0365H118.944ZM131.845 79.0365V75.911H135.43V48.4883H131.955V45.3628H139.288V75.911H142.706V79.0365H131.845ZM151.033 60.5802V72.7307C151.033 75.739 151.474 75.9123 153.017 75.9123C153.623 75.9123 154.286 75.7976 154.892 75.7976V78.9792C153.843 79.3255 152.745 79.5014 151.64 79.5001C148.057 79.5001 147.23 78.4583 147.23 73.8311V60.5802H143.699V57.456H147.23V50.0498H151.035V57.456H154.949V60.5802H151.033ZM181.081 79.0365V75.911H177.607V60.6375H181.081V57.5133H174.244V60.7534H174.078C172.701 58.6124 169.777 57.0509 167.132 57.0509C160.791 57.0509 156.986 61.9111 156.986 68.2169C156.986 74.5227 160.791 79.4988 167.132 79.4988C169.777 79.4988 172.701 77.9361 174.078 75.7378H174.244V79.0353L181.081 79.0365Z" fill="white"/>
<path fill-rule="evenodd" clip-rule="evenodd" d="M174.134 68.2182C174.134 73.3102 170.826 76.3185 167.461 76.3185C162.829 76.3185 160.789 72.3269 160.789 68.2182C160.789 64.2266 162.829 60.1752 167.461 60.1752C170.825 60.1752 174.134 63.0676 174.134 68.2182Z" fill="#2D4F9E"/>
<path fill-rule="evenodd" clip-rule="evenodd" d="M190.343 68.5073V75.911H194.202V79.0365H183.119V75.911H186.539V60.5802H183.119V57.456H190.122V61.7367H190.231C191.72 58.2648 194.644 56.9924 198.117 56.9924V60.5216C191.831 60.984 190.343 63.0676 190.343 68.5073ZM201.811 52.1907V47.9088H207.269V52.1907H201.811ZM199.883 79.0365V75.911H203.52V60.5802H199.993V57.456H207.323V75.911H210.744V79.0365H199.883ZM212.783 79.0365V75.911H216.587V60.5802H212.839V57.456H216.587V50.9171C216.587 47.7929 218.793 45.3628 221.881 45.3628H224.251V48.4883H222.653C221.329 48.4883 220.392 49.413 220.392 51.4954V57.456H224.253V60.5802H220.392V75.911H224.253V79.0365H212.783Z" fill="white"/>
</g>
<g clip-path="url(#clip1_17_2487)">
<path fill-rule="evenodd" clip-rule="evenodd" d="M936.895 -58.3987H1177.11V181.815H936.895V-58.3987Z" fill="white"/>
<path fill-rule="evenodd" clip-rule="evenodd" d="M978.736 91.1284C963.298 91.1284 950.727 77.9361 950.727 61.6794C950.727 45.4787 963.298 32.2876 978.736 32.2876H1135.26C1150.76 32.2876 1163.28 45.4787 1163.28 61.6794C1163.28 77.9361 1150.76 91.1284 1135.26 91.1284H978.736Z" fill="#2D4F9E" stroke="#CC2229" stroke-width="4.01777" stroke-miterlimit="2.613"/>
<path fill-rule="evenodd" clip-rule="evenodd" d="M1000.13 48.5456V79.0365H996.437L981.936 52.7117H981.881V75.8549H985.795V79.0365H974.217V75.8549H977.856V48.5456H974.326V45.3628H982.598L995.995 70.0676H996.105V48.5456H992.411V45.3628H1003.71V48.5456H1000.13ZM1022.41 78.9779V75.6219H1022.3C1021.43 76.8182 1020.3 77.793 1018.98 78.4668C1017.67 79.1406 1016.22 79.4943 1014.74 79.4988C1010.39 79.4988 1008.23 77.242 1008.23 72.4403V60.5802H1005.26V57.456H1012.04V72.6709C1012.04 75.0997 1013.75 76.1416 1015.46 76.1416C1018.38 76.1416 1020.36 74.5228 1022.4 72.4977V60.579H1018.87V57.4547H1026.21V75.8537H1029.52V78.9767L1022.41 78.9779ZM1031.94 79.0365V75.911H1035.58V48.4883H1032.05V45.3628H1039.39V75.911H1042.81V79.0365H1031.94ZM1044.85 79.0365V75.911H1048.43V48.4883H1044.96V45.3628H1052.29V75.911H1055.71V79.0365H1044.85ZM1064.03 60.5802V72.7307C1064.03 75.739 1064.47 75.9123 1066.02 75.9123C1066.62 75.9123 1067.29 75.7976 1067.89 75.7976V78.9792C1066.84 79.3255 1065.74 79.5014 1064.64 79.5001C1061.06 79.5001 1060.23 78.4583 1060.23 73.8311V60.5802H1056.7V57.456H1060.23V50.0498H1064.03V57.456H1067.95V60.5802H1064.03ZM1094.08 79.0365V75.911H1090.61V60.6375H1094.08V57.5133H1087.24V60.7534H1087.08C1085.7 58.6124 1082.78 57.0509 1080.13 57.0509C1073.79 57.0509 1069.99 61.9111 1069.99 68.2169C1069.99 74.5227 1073.79 79.4988 1080.13 79.4988C1082.78 79.4988 1085.7 77.9361 1087.08 75.7378H1087.24V79.0353L1094.08 79.0365Z" fill="white"/>
<path fill-rule="evenodd" clip-rule="evenodd" d="M1087.13 68.2182C1087.13 73.3102 1083.83 76.3185 1080.46 76.3185C1075.83 76.3185 1073.79 72.3269 1073.79 68.2182C1073.79 64.2266 1075.83 60.1752 1080.46 60.1752C1083.83 60.1752 1087.13 63.0676 1087.13 68.2182Z" fill="#2D4F9E"/>
<path fill-rule="evenodd" clip-rule="evenodd" d="M1103.34 68.5073V75.911H1107.2V79.0365H1096.12V75.911H1099.54V60.5802H1096.12V57.456H1103.12V61.7367H1103.23C1104.72 58.2648 1107.64 56.9924 1111.12 56.9924V60.5216C1104.83 60.984 1103.34 63.0676 1103.34 68.5073ZM1114.81 52.1907V47.9088H1120.27V52.1907H1114.81ZM1112.88 79.0365V75.911H1116.52V60.5802H1112.99V57.456H1120.32V75.911H1123.74V79.0365H1112.88ZM1125.78 79.0365V75.911H1129.59V60.5802H1125.84V57.456H1129.59V50.9171C1129.59 47.7929 1131.79 45.3628 1134.88 45.3628H1137.25V48.4883H1135.65C1134.33 48.4883 1133.39 49.413 1133.39 51.4954V57.456H1137.25V60.5802H1133.39V75.911H1137.25V79.0365H1125.78Z" fill="white"/>
</g>
<defs>
<clipPath id="clip0_17_2487">
<rect x="36" y="31" width="216" height="61" rx="30.5" fill="white"/>
</clipPath>
<clipPath id="clip1_17_2487">
<rect x="949" y="31" width="216" height="61" rx="30.5" fill="white"/>
</clipPath>
</defs>
</svg>
